<mxfile host="app.diagrams.net" agent="Mozilla/5.0 (Windows NT 10.0; Win64; x64) AppleWebKit/537.36 (KHTML, like Gecko) Chrome/130.0.0.0 Safari/537.36" version="24.8.1">
  <diagram name="Страница — 1" id="nLdedVntI2_cKPDWCnaJ">
    <mxGraphModel dx="1707" dy="1779" grid="1" gridSize="10" guides="1" tooltips="1" connect="1" arrows="1" fold="1" page="1" pageScale="1" pageWidth="827" pageHeight="1169" math="0" shadow="0">
      <root>
        <mxCell id="0" />
        <mxCell id="1" parent="0" />
        <mxCell id="O51IEYqfcPiCK1wXWAZh-1" value="Неавторизированный пользователь" style="shape=umlActor;verticalLabelPosition=bottom;verticalAlign=top;html=1;outlineConnect=0;" parent="1" vertex="1">
          <mxGeometry x="240" y="110" width="30" height="60" as="geometry" />
        </mxCell>
        <mxCell id="O51IEYqfcPiCK1wXWAZh-2" value="Заказчик" style="shape=umlActor;verticalLabelPosition=bottom;verticalAlign=top;html=1;outlineConnect=0;" parent="1" vertex="1">
          <mxGeometry x="500" y="-90" width="30" height="60" as="geometry" />
        </mxCell>
        <mxCell id="O51IEYqfcPiCK1wXWAZh-3" value="Фрилансер" style="shape=umlActor;verticalLabelPosition=bottom;verticalAlign=top;html=1;outlineConnect=0;" parent="1" vertex="1">
          <mxGeometry x="500" y="320" width="30" height="60" as="geometry" />
        </mxCell>
        <mxCell id="O51IEYqfcPiCK1wXWAZh-4" value="Администратор" style="shape=umlActor;verticalLabelPosition=bottom;verticalAlign=top;html=1;outlineConnect=0;" parent="1" vertex="1">
          <mxGeometry x="260" y="555" width="30" height="60" as="geometry" />
        </mxCell>
        <mxCell id="O51IEYqfcPiCK1wXWAZh-6" value="Регистрация" style="ellipse;whiteSpace=wrap;html=1;" parent="1" vertex="1">
          <mxGeometry x="-60" y="-50" width="120" height="80" as="geometry" />
        </mxCell>
        <mxCell id="O51IEYqfcPiCK1wXWAZh-7" value="Авторизация" style="ellipse;whiteSpace=wrap;html=1;" parent="1" vertex="1">
          <mxGeometry x="-60" y="70" width="120" height="80" as="geometry" />
        </mxCell>
        <mxCell id="O51IEYqfcPiCK1wXWAZh-8" value="Восстановление пароля" style="ellipse;whiteSpace=wrap;html=1;" parent="1" vertex="1">
          <mxGeometry x="-300" y="70" width="120" height="80" as="geometry" />
        </mxCell>
        <mxCell id="O51IEYqfcPiCK1wXWAZh-9" value="Просмотр публичных страниц (список проектов и фрилансеров)" style="ellipse;whiteSpace=wrap;html=1;" parent="1" vertex="1">
          <mxGeometry x="-60" y="190" width="120" height="80" as="geometry" />
        </mxCell>
        <mxCell id="O51IEYqfcPiCK1wXWAZh-10" value="Создание нового проекта" style="ellipse;whiteSpace=wrap;html=1;" parent="1" vertex="1">
          <mxGeometry x="660" y="-240" width="120" height="80" as="geometry" />
        </mxCell>
        <mxCell id="O51IEYqfcPiCK1wXWAZh-11" value="Редактирование проекта" style="ellipse;whiteSpace=wrap;html=1;" parent="1" vertex="1">
          <mxGeometry x="1030" y="-280" width="120" height="80" as="geometry" />
        </mxCell>
        <mxCell id="O51IEYqfcPiCK1wXWAZh-13" value="Выбор исполнителя для проекта" style="ellipse;whiteSpace=wrap;html=1;" parent="1" vertex="1">
          <mxGeometry x="1030" y="-30" width="120" height="80" as="geometry" />
        </mxCell>
        <mxCell id="O51IEYqfcPiCK1wXWAZh-14" value="Отправка сообщения исполнителю" style="ellipse;whiteSpace=wrap;html=1;" parent="1" vertex="1">
          <mxGeometry x="1030" y="90" width="120" height="80" as="geometry" />
        </mxCell>
        <mxCell id="O51IEYqfcPiCK1wXWAZh-15" value="Завершение проекта" style="ellipse;whiteSpace=wrap;html=1;" parent="1" vertex="1">
          <mxGeometry x="1030" y="-160" width="120" height="80" as="geometry" />
        </mxCell>
        <mxCell id="O51IEYqfcPiCK1wXWAZh-17" value="Подача заявки на проект" style="ellipse;whiteSpace=wrap;html=1;" parent="1" vertex="1">
          <mxGeometry x="610" y="240" width="120" height="80" as="geometry" />
        </mxCell>
        <mxCell id="O51IEYqfcPiCK1wXWAZh-18" value="Открыть чат с заказчиком" style="ellipse;whiteSpace=wrap;html=1;" parent="1" vertex="1">
          <mxGeometry x="850" y="240" width="120" height="80" as="geometry" />
        </mxCell>
        <mxCell id="O51IEYqfcPiCK1wXWAZh-20" value="Отправить результаты проекта" style="ellipse;whiteSpace=wrap;html=1;" parent="1" vertex="1">
          <mxGeometry x="850" y="360" width="120" height="80" as="geometry" />
        </mxCell>
        <mxCell id="O51IEYqfcPiCK1wXWAZh-21" value="Оставить отзыв на заказчика" style="ellipse;whiteSpace=wrap;html=1;" parent="1" vertex="1">
          <mxGeometry x="1080" y="360" width="120" height="80" as="geometry" />
        </mxCell>
        <mxCell id="O51IEYqfcPiCK1wXWAZh-22" value="Управление пользователями (блокировка, разблокировка, удаление аккаунта)&amp;nbsp;" style="ellipse;whiteSpace=wrap;html=1;" parent="1" vertex="1">
          <mxGeometry x="460" y="495" width="150" height="120" as="geometry" />
        </mxCell>
        <mxCell id="O51IEYqfcPiCK1wXWAZh-23" value="Управление пользовательскими проектами (удаление, отправка на редактирование)&amp;nbsp;" style="ellipse;whiteSpace=wrap;html=1;" parent="1" vertex="1">
          <mxGeometry x="460" y="640" width="160" height="120" as="geometry" />
        </mxCell>
        <mxCell id="O51IEYqfcPiCK1wXWAZh-24" value="Управление спорами&amp;nbsp;" style="ellipse;whiteSpace=wrap;html=1;" parent="1" vertex="1">
          <mxGeometry x="470" y="800" width="120" height="80" as="geometry" />
        </mxCell>
        <mxCell id="O51IEYqfcPiCK1wXWAZh-25" value="Просмотр статистики биржи" style="ellipse;whiteSpace=wrap;html=1;" parent="1" vertex="1">
          <mxGeometry x="320" y="830" width="120" height="80" as="geometry" />
        </mxCell>
        <mxCell id="O51IEYqfcPiCK1wXWAZh-31" value="" style="endArrow=none;html=1;rounded=0;entryX=1;entryY=0.5;entryDx=0;entryDy=0;exitX=0.5;exitY=0;exitDx=0;exitDy=0;exitPerimeter=0;" parent="1" source="O51IEYqfcPiCK1wXWAZh-1" target="O51IEYqfcPiCK1wXWAZh-6" edge="1">
          <mxGeometry width="50" height="50" relative="1" as="geometry">
            <mxPoint x="130" y="60" as="sourcePoint" />
            <mxPoint x="180" y="10" as="targetPoint" />
          </mxGeometry>
        </mxCell>
        <mxCell id="O51IEYqfcPiCK1wXWAZh-32" value="" style="endArrow=none;html=1;rounded=0;entryX=0.5;entryY=0;entryDx=0;entryDy=0;entryPerimeter=0;exitX=1;exitY=0.5;exitDx=0;exitDy=0;" parent="1" source="O51IEYqfcPiCK1wXWAZh-7" target="O51IEYqfcPiCK1wXWAZh-1" edge="1">
          <mxGeometry width="50" height="50" relative="1" as="geometry">
            <mxPoint x="100" y="160" as="sourcePoint" />
            <mxPoint x="150" y="110" as="targetPoint" />
          </mxGeometry>
        </mxCell>
        <mxCell id="O51IEYqfcPiCK1wXWAZh-34" value="" style="endArrow=none;html=1;rounded=0;entryX=0.5;entryY=0;entryDx=0;entryDy=0;entryPerimeter=0;exitX=1;exitY=0.5;exitDx=0;exitDy=0;" parent="1" source="O51IEYqfcPiCK1wXWAZh-9" target="O51IEYqfcPiCK1wXWAZh-1" edge="1">
          <mxGeometry width="50" height="50" relative="1" as="geometry">
            <mxPoint x="130" y="310" as="sourcePoint" />
            <mxPoint x="180" y="260" as="targetPoint" />
          </mxGeometry>
        </mxCell>
        <mxCell id="O51IEYqfcPiCK1wXWAZh-35" value="" style="endArrow=classic;html=1;rounded=0;exitX=0;exitY=0.3333333333333333;exitDx=0;exitDy=0;exitPerimeter=0;entryX=0.75;entryY=0.1;entryDx=0;entryDy=0;entryPerimeter=0;" parent="1" source="O51IEYqfcPiCK1wXWAZh-2" target="O51IEYqfcPiCK1wXWAZh-1" edge="1">
          <mxGeometry width="50" height="50" relative="1" as="geometry">
            <mxPoint x="300" y="10" as="sourcePoint" />
            <mxPoint x="350" y="-40" as="targetPoint" />
          </mxGeometry>
        </mxCell>
        <mxCell id="O51IEYqfcPiCK1wXWAZh-36" value="" style="endArrow=classic;html=1;rounded=0;entryX=0.75;entryY=0.1;entryDx=0;entryDy=0;entryPerimeter=0;exitX=0.5;exitY=0;exitDx=0;exitDy=0;exitPerimeter=0;" parent="1" source="O51IEYqfcPiCK1wXWAZh-3" target="O51IEYqfcPiCK1wXWAZh-1" edge="1">
          <mxGeometry width="50" height="50" relative="1" as="geometry">
            <mxPoint x="370" y="180" as="sourcePoint" />
            <mxPoint x="420" y="130" as="targetPoint" />
          </mxGeometry>
        </mxCell>
        <mxCell id="O51IEYqfcPiCK1wXWAZh-37" value="" style="endArrow=classic;html=1;rounded=0;entryX=1;entryY=1;entryDx=0;entryDy=0;entryPerimeter=0;exitX=0.5;exitY=0;exitDx=0;exitDy=0;exitPerimeter=0;" parent="1" source="O51IEYqfcPiCK1wXWAZh-4" target="O51IEYqfcPiCK1wXWAZh-1" edge="1">
          <mxGeometry width="50" height="50" relative="1" as="geometry">
            <mxPoint x="330" y="680" as="sourcePoint" />
            <mxPoint x="380" y="630" as="targetPoint" />
          </mxGeometry>
        </mxCell>
        <mxCell id="O51IEYqfcPiCK1wXWAZh-42" value="&amp;lt;&amp;lt;extend&amp;gt;&amp;gt;" style="endArrow=open;endSize=12;dashed=1;html=1;rounded=0;entryX=1;entryY=0.5;entryDx=0;entryDy=0;exitX=0;exitY=0.5;exitDx=0;exitDy=0;" parent="1" source="O51IEYqfcPiCK1wXWAZh-14" target="X6njnvrABsFh-sDlYkDR-5" edge="1">
          <mxGeometry width="160" relative="1" as="geometry">
            <mxPoint x="540" y="180" as="sourcePoint" />
            <mxPoint x="700" y="180" as="targetPoint" />
          </mxGeometry>
        </mxCell>
        <mxCell id="O51IEYqfcPiCK1wXWAZh-43" value="&amp;lt;&amp;lt;extend&amp;gt;&amp;gt;" style="endArrow=open;endSize=12;dashed=1;html=1;rounded=0;entryX=1;entryY=0.5;entryDx=0;entryDy=0;exitX=0;exitY=0.5;exitDx=0;exitDy=0;" parent="1" source="O51IEYqfcPiCK1wXWAZh-13" target="X6njnvrABsFh-sDlYkDR-5" edge="1">
          <mxGeometry width="160" relative="1" as="geometry">
            <mxPoint x="580" y="160" as="sourcePoint" />
            <mxPoint x="740" y="160" as="targetPoint" />
          </mxGeometry>
        </mxCell>
        <mxCell id="O51IEYqfcPiCK1wXWAZh-44" value="" style="endArrow=none;html=1;rounded=0;entryX=0;entryY=0.5;entryDx=0;entryDy=0;exitX=1;exitY=0.3333333333333333;exitDx=0;exitDy=0;exitPerimeter=0;" parent="1" source="O51IEYqfcPiCK1wXWAZh-3" target="O51IEYqfcPiCK1wXWAZh-17" edge="1">
          <mxGeometry width="50" height="50" relative="1" as="geometry">
            <mxPoint x="520" y="490" as="sourcePoint" />
            <mxPoint x="570" y="440" as="targetPoint" />
          </mxGeometry>
        </mxCell>
        <mxCell id="O51IEYqfcPiCK1wXWAZh-46" value="&amp;lt;&amp;lt;extend&amp;gt;&amp;gt;" style="endArrow=open;endSize=12;dashed=1;html=1;rounded=0;entryX=1;entryY=0.5;entryDx=0;entryDy=0;exitX=0;exitY=0.5;exitDx=0;exitDy=0;" parent="1" source="O51IEYqfcPiCK1wXWAZh-21" target="O51IEYqfcPiCK1wXWAZh-20" edge="1">
          <mxGeometry width="160" relative="1" as="geometry">
            <mxPoint x="560" y="560" as="sourcePoint" />
            <mxPoint x="720" y="560" as="targetPoint" />
            <mxPoint as="offset" />
          </mxGeometry>
        </mxCell>
        <mxCell id="O51IEYqfcPiCK1wXWAZh-48" value="&amp;lt;&amp;lt;extend&amp;gt;&amp;gt;" style="endArrow=open;endSize=12;dashed=1;html=1;rounded=0;entryX=1;entryY=0.5;entryDx=0;entryDy=0;exitX=0;exitY=0.5;exitDx=0;exitDy=0;" parent="1" source="O51IEYqfcPiCK1wXWAZh-18" target="O51IEYqfcPiCK1wXWAZh-17" edge="1">
          <mxGeometry width="160" relative="1" as="geometry">
            <mxPoint x="590" y="560" as="sourcePoint" />
            <mxPoint x="750" y="560" as="targetPoint" />
          </mxGeometry>
        </mxCell>
        <mxCell id="O51IEYqfcPiCK1wXWAZh-49" value="" style="endArrow=none;html=1;rounded=0;entryX=0;entryY=0.5;entryDx=0;entryDy=0;exitX=1;exitY=0.3333333333333333;exitDx=0;exitDy=0;exitPerimeter=0;" parent="1" source="O51IEYqfcPiCK1wXWAZh-4" target="O51IEYqfcPiCK1wXWAZh-22" edge="1">
          <mxGeometry width="50" height="50" relative="1" as="geometry">
            <mxPoint x="490" y="940" as="sourcePoint" />
            <mxPoint x="540" y="890" as="targetPoint" />
          </mxGeometry>
        </mxCell>
        <mxCell id="O51IEYqfcPiCK1wXWAZh-50" value="" style="endArrow=none;html=1;rounded=0;entryX=0;entryY=0.5;entryDx=0;entryDy=0;exitX=1;exitY=0.3333333333333333;exitDx=0;exitDy=0;exitPerimeter=0;" parent="1" source="O51IEYqfcPiCK1wXWAZh-4" target="O51IEYqfcPiCK1wXWAZh-23" edge="1">
          <mxGeometry width="50" height="50" relative="1" as="geometry">
            <mxPoint x="500" y="740" as="sourcePoint" />
            <mxPoint x="530" y="890" as="targetPoint" />
          </mxGeometry>
        </mxCell>
        <mxCell id="O51IEYqfcPiCK1wXWAZh-51" value="" style="endArrow=none;html=1;rounded=0;entryX=0;entryY=0.5;entryDx=0;entryDy=0;exitX=1;exitY=0.3333333333333333;exitDx=0;exitDy=0;exitPerimeter=0;" parent="1" source="O51IEYqfcPiCK1wXWAZh-4" target="O51IEYqfcPiCK1wXWAZh-24" edge="1">
          <mxGeometry width="50" height="50" relative="1" as="geometry">
            <mxPoint x="510" y="940" as="sourcePoint" />
            <mxPoint x="560" y="890" as="targetPoint" />
          </mxGeometry>
        </mxCell>
        <mxCell id="O51IEYqfcPiCK1wXWAZh-52" value="" style="endArrow=none;html=1;rounded=0;entryX=0;entryY=0.5;entryDx=0;entryDy=0;exitX=1;exitY=0.3333333333333333;exitDx=0;exitDy=0;exitPerimeter=0;" parent="1" source="O51IEYqfcPiCK1wXWAZh-4" target="O51IEYqfcPiCK1wXWAZh-25" edge="1">
          <mxGeometry width="50" height="50" relative="1" as="geometry">
            <mxPoint x="520" y="990" as="sourcePoint" />
            <mxPoint x="570" y="940" as="targetPoint" />
          </mxGeometry>
        </mxCell>
        <mxCell id="X6njnvrABsFh-sDlYkDR-2" value="&amp;lt;&amp;lt;extend&amp;gt;&amp;gt;" style="endArrow=open;endSize=12;dashed=1;html=1;rounded=0;exitX=0;exitY=0.5;exitDx=0;exitDy=0;entryX=1;entryY=0.5;entryDx=0;entryDy=0;" edge="1" parent="1" source="O51IEYqfcPiCK1wXWAZh-15" target="X6njnvrABsFh-sDlYkDR-5">
          <mxGeometry width="160" relative="1" as="geometry">
            <mxPoint x="630" y="-80" as="sourcePoint" />
            <mxPoint x="1060" y="-60" as="targetPoint" />
          </mxGeometry>
        </mxCell>
        <mxCell id="X6njnvrABsFh-sDlYkDR-3" value="&amp;lt;&amp;lt;extend&amp;gt;&amp;gt;" style="endArrow=open;endSize=12;dashed=1;html=1;rounded=0;exitX=0;exitY=0.5;exitDx=0;exitDy=0;entryX=1;entryY=0.5;entryDx=0;entryDy=0;" edge="1" parent="1" source="O51IEYqfcPiCK1wXWAZh-11" target="X6njnvrABsFh-sDlYkDR-5">
          <mxGeometry width="160" relative="1" as="geometry">
            <mxPoint x="670" y="-220" as="sourcePoint" />
            <mxPoint x="760" y="-240" as="targetPoint" />
          </mxGeometry>
        </mxCell>
        <mxCell id="X6njnvrABsFh-sDlYkDR-4" value="" style="endArrow=none;html=1;rounded=0;exitX=1;exitY=0.3333333333333333;exitDx=0;exitDy=0;exitPerimeter=0;entryX=0;entryY=0.5;entryDx=0;entryDy=0;" edge="1" parent="1" source="O51IEYqfcPiCK1wXWAZh-2" target="O51IEYqfcPiCK1wXWAZh-10">
          <mxGeometry width="50" height="50" relative="1" as="geometry">
            <mxPoint x="630" y="-30" as="sourcePoint" />
            <mxPoint x="600" y="-80" as="targetPoint" />
          </mxGeometry>
        </mxCell>
        <mxCell id="X6njnvrABsFh-sDlYkDR-5" value="Просмотр существующего проекта" style="ellipse;whiteSpace=wrap;html=1;" vertex="1" parent="1">
          <mxGeometry x="660" y="-110" width="120" height="80" as="geometry" />
        </mxCell>
        <mxCell id="X6njnvrABsFh-sDlYkDR-8" value="&amp;lt;&amp;lt;extend&amp;gt;&amp;gt;" style="endArrow=open;endSize=12;dashed=1;html=1;rounded=0;entryX=0;entryY=0.5;entryDx=0;entryDy=0;exitX=1;exitY=0.5;exitDx=0;exitDy=0;" edge="1" parent="1" source="O51IEYqfcPiCK1wXWAZh-8" target="O51IEYqfcPiCK1wXWAZh-7">
          <mxGeometry width="160" relative="1" as="geometry">
            <mxPoint x="-150" y="220" as="sourcePoint" />
            <mxPoint x="10" y="220" as="targetPoint" />
          </mxGeometry>
        </mxCell>
        <mxCell id="X6njnvrABsFh-sDlYkDR-9" value="" style="endArrow=none;html=1;rounded=0;entryX=0;entryY=0.5;entryDx=0;entryDy=0;exitX=1;exitY=0.3333333333333333;exitDx=0;exitDy=0;exitPerimeter=0;" edge="1" parent="1" source="O51IEYqfcPiCK1wXWAZh-2" target="X6njnvrABsFh-sDlYkDR-5">
          <mxGeometry width="50" height="50" relative="1" as="geometry">
            <mxPoint x="610" y="10" as="sourcePoint" />
            <mxPoint x="660" y="-40" as="targetPoint" />
          </mxGeometry>
        </mxCell>
        <mxCell id="X6njnvrABsFh-sDlYkDR-10" value="Открыть рабочий проект" style="ellipse;whiteSpace=wrap;html=1;" vertex="1" parent="1">
          <mxGeometry x="610" y="360" width="120" height="80" as="geometry" />
        </mxCell>
        <mxCell id="X6njnvrABsFh-sDlYkDR-11" value="&amp;lt;&amp;lt;extend&amp;gt;&amp;gt;" style="endArrow=open;endSize=12;dashed=1;html=1;rounded=0;entryX=1;entryY=0.5;entryDx=0;entryDy=0;exitX=0;exitY=0.5;exitDx=0;exitDy=0;" edge="1" parent="1" source="O51IEYqfcPiCK1wXWAZh-18" target="X6njnvrABsFh-sDlYkDR-10">
          <mxGeometry width="160" relative="1" as="geometry">
            <mxPoint x="700" y="480" as="sourcePoint" />
            <mxPoint x="860" y="480" as="targetPoint" />
          </mxGeometry>
        </mxCell>
        <mxCell id="X6njnvrABsFh-sDlYkDR-12" value="" style="endArrow=none;html=1;rounded=0;entryX=1;entryY=0.3333333333333333;entryDx=0;entryDy=0;entryPerimeter=0;exitX=0;exitY=0.5;exitDx=0;exitDy=0;" edge="1" parent="1" source="X6njnvrABsFh-sDlYkDR-10" target="O51IEYqfcPiCK1wXWAZh-3">
          <mxGeometry width="50" height="50" relative="1" as="geometry">
            <mxPoint x="540" y="460" as="sourcePoint" />
            <mxPoint x="590" y="410" as="targetPoint" />
          </mxGeometry>
        </mxCell>
        <mxCell id="X6njnvrABsFh-sDlYkDR-13" value="&amp;lt;&amp;lt;extend&amp;gt;&amp;gt;" style="endArrow=open;endSize=12;dashed=1;html=1;rounded=0;entryX=1;entryY=0.5;entryDx=0;entryDy=0;exitX=0;exitY=0.5;exitDx=0;exitDy=0;" edge="1" parent="1" source="O51IEYqfcPiCK1wXWAZh-20" target="X6njnvrABsFh-sDlYkDR-10">
          <mxGeometry width="160" relative="1" as="geometry">
            <mxPoint x="710" y="480" as="sourcePoint" />
            <mxPoint x="870" y="480" as="targetPoint" />
          </mxGeometry>
        </mxCell>
        <mxCell id="X6njnvrABsFh-sDlYkDR-14" value="Оставить отзыв на исполнителя" style="ellipse;whiteSpace=wrap;html=1;" vertex="1" parent="1">
          <mxGeometry x="1250" y="-160" width="120" height="80" as="geometry" />
        </mxCell>
        <mxCell id="X6njnvrABsFh-sDlYkDR-15" value="&amp;lt;&amp;lt;extend&amp;gt;&amp;gt;" style="endArrow=open;endSize=12;dashed=1;html=1;rounded=0;entryX=1;entryY=0.5;entryDx=0;entryDy=0;exitX=0;exitY=0.5;exitDx=0;exitDy=0;" edge="1" parent="1" source="X6njnvrABsFh-sDlYkDR-14" target="O51IEYqfcPiCK1wXWAZh-15">
          <mxGeometry width="160" relative="1" as="geometry">
            <mxPoint x="1130" y="-50" as="sourcePoint" />
            <mxPoint x="1290" y="-50" as="targetPoint" />
          </mxGeometry>
        </mxCell>
      </root>
    </mxGraphModel>
  </diagram>
</mxfile>
